<svg viewBox="0 0 1920 969" style="position: absolute; z-index: 1; margin: 0px; padding: 0px; display: block; top: 0px; left: 0px;"><g stroke="#000" fill="none"><polygon points="710,179,683,333"></polygon><polygon points="683,336,767,511"></polygon><polygon points="978,172,1002,334"></polygon><polygon points="1003,336,963,460"></polygon><polygon points="937,251,937,459"></polygon><polygon points="752,259,766,488"></polygon><polygon points="767,491,882,517"></polygon><polygon points="891,517,925,486"></polygon><polygon points="910,296,910,310"></polygon><polygon points="780,297,780,304"></polygon><polygon points="835,407,835,413"></polygon><polygon points="833,409,860,409"></polygon><polygon points="827,480,861,480"></polygon><polygon points="745,249,834,252"></polygon><polygon points="835,252,927,248"></polygon><polygon points="705,199,605,190"></polygon><polygon points="605,194,555,94"></polygon><polygon points="557,102,562,238"></polygon><polygon points="562,238,700,278"></polygon><polygon points="985,195,1076,184"></polygon><polygon points="1076,186,1084,63"></polygon><polygon points="1084,63,1105,303"></polygon><polygon points="1105,303,1005,303"></polygon><polygon points="701,172,943,150"></polygon><polygon points="943,150,926,180"></polygon><polygon points="926,180,966,171"></polygon><polygon points="966,171,955,199"></polygon><polygon points="832,406,788,345"></polygon><polygon points="788,347,905,349"></polygon><polygon points="905,350,841,420"></polygon><polygon points="253,273,209,533"></polygon><polygon points="209,533,224,702"></polygon><polygon points="213,691,266,760"></polygon><polygon points="268,297,290,425"></polygon><polygon points="292,431,297,278"></polygon><polygon points="297,278,367,510"></polygon><polygon points="367,510,367,334"></polygon><polygon points="367,334,430,505"></polygon><polygon points="430,505,435,440"></polygon><polygon points="435,440,435,413"></polygon><polygon points="435,413,467,478"></polygon><polygon points="467,479,502,427"></polygon><polygon points="484,455,498,515"></polygon><polygon points="498,515,369,633"></polygon><polygon points="369,633,276,612"></polygon><polygon points="276,613,277,509"></polygon><polygon points="278,508,288,341"></polygon><polygon points="319,541,346,564"></polygon><polygon points="318,540,322,581"></polygon><polygon points="322,581,373,574"></polygon><polygon points="340,559,389,573"></polygon><polygon points="384,502,384,549"></polygon><polygon points="384,548,493,498"></polygon><polygon points="390,479,498,520"></polygon><polygon points="371,434,391,441"></polygon><polygon points="495,373,505,487"></polygon><polygon points="505,487,502,494"></polygon><polygon points="231,397,176,340"></polygon><polygon points="176,340,171,386"></polygon><polygon points="171,399,173,429"></polygon><polygon points="173,429,211,429"></polygon><polygon points="267,269,208,234"></polygon><polygon points="208,234,206,203"></polygon><polygon points="206,204,284,245"></polygon><polygon points="284,230,278,300"></polygon><polygon points="266,232,469,301"></polygon><polygon points="474,305,500,369"></polygon><polygon points="485,329,560,329"></polygon><polygon points="560,329,553,350"></polygon><polygon points="553,350,493,353"></polygon><polygon points="258,554,267,893"></polygon><polygon points="463,545,521,795"></polygon><polygon points="432,578,486,766"></polygon><polygon points="459,645,465,784"></polygon><polygon points="478,700,478,721"></polygon><polygon points="478,726,478,732"></polygon><polygon points="296,617,292,658"></polygon><polygon points="268,641,280,651"></polygon><polygon points="203,502,180,618"></polygon><polygon points="1299,182,1298,386"></polygon><polygon points="1298,389,1275,425"></polygon><polygon points="1275,425,1326,520"></polygon><polygon points="1309,361,1310,395"></polygon><polygon points="1315,379,1327,399"></polygon><polygon points="1327,399,1423,368"></polygon><polygon points="1415,361,1416,370"></polygon><polygon points="1307,355,1439,350"></polygon><polygon points="1449,349,1449,399"></polygon><polygon points="1422,369,1422,373"></polygon><polygon points="1324,487,1507,438"></polygon><polygon points="1507,438,1529,492"></polygon><polygon points="1342,485,1513,493"></polygon><polygon points="1339,497,1338,511"></polygon><polygon points="1338,511,1364,511"></polygon><polygon points="1373,289,1373,299"></polygon><polygon points="1373,299,1548,196"></polygon><polygon points="1405,281,1405,289"></polygon><polygon points="1405,289,1522,247"></polygon><polygon points="1425,285,1425,301"></polygon><polygon points="1425,301,1518,284"></polygon><polygon points="1347,280,1347,298"></polygon><polygon points="1347,298,1282,251"></polygon><polygon points="1326,277,1331,296"></polygon><polygon points="1331,296,1298,287"></polygon><polygon points="1326,295,1326,305"></polygon><polygon points="1326,305,1281,303"></polygon><polygon points="1300,160,1512,104"></polygon><polygon points="1512,104,1562,108"></polygon><polygon points="1559,118,1539,131"></polygon><polygon points="1539,131,1579,209"></polygon><polygon points="1579,209,1783,203"></polygon><polygon points="1569,118,1876,115"></polygon><polygon points="1876,112,1871,279"></polygon><polygon points="1786,204,1825,202"></polygon><polygon points="1828,200,1874,304"></polygon><polygon points="1402,128,1135,148"></polygon><polygon points="1138,148,1165,247"></polygon><polygon points="1165,247,1174,204"></polygon><polygon points="1178,228,1336,250"></polygon><polygon points="1295,278,1263,278"></polygon><polygon points="1263,278,1208,455"></polygon><polygon points="1442,276,1466,286"></polygon><polygon points="1458,287,1481,256"></polygon><polygon points="1306,277,1307,288"></polygon><polygon points="1307,288,1316,279"></polygon><polygon points="1293,273,1337,278"></polygon><polygon points="1616,258,1718,237"></polygon><polygon points="1718,237,1751,251"></polygon><polygon points="1751,251,1683,385"></polygon><polygon points="1683,385,1615,371"></polygon><polygon points="1597,346,1687,261"></polygon><polygon points="1654,293,1660,304"></polygon><polygon points="1657,273,1663,283"></polygon><polygon points="1611,208,1611,240"></polygon><polygon points="1648,198,1699,227"></polygon><polygon points="1741,261,1811,276"></polygon><polygon points="1811,275,1919,515"></polygon><polygon points="1678,459,1602,606"></polygon><polygon points="1595,607,1667,672"></polygon><polygon points="1597,633,1619,646"></polygon><polygon points="1571,639,1590,651"></polygon><polygon points="1591,600,1441,694"></polygon><polygon points="1441,694,1466,776"></polygon><polygon points="1436,704,1372,704"></polygon><polygon points="1372,704,1357,750"></polygon><polygon points="1354,751,1389,751"></polygon><polygon points="1389,752,1382,817"></polygon><polygon points="1374,817,1419,829"></polygon><polygon points="1337,528,1358,570"></polygon><polygon points="1356,548,1400,557"></polygon><polygon points="1400,557,1435,492"></polygon><polygon points="1446,518,1446,545"></polygon><polygon points="1446,545,1489,513"></polygon><polygon points="1490,513,1490,544"></polygon><polygon points="1490,544,1497,513"></polygon><polygon points="1499,509,1499,520"></polygon><polygon points="1499,521,1500,515"></polygon><polygon points="1500,514,1524,393"></polygon><polygon points="1586,512,1615,311"></polygon><polygon points="1310,518,1310,587"></polygon><polygon points="1329,618,1339,622"></polygon><polygon points="1340,622,1418,623"></polygon><polygon points="1418,633,1576,552"></polygon><polygon points="1532,547,1532,577"></polygon><polygon points="1474,575,1475,598"></polygon><polygon points="1512,560,1513,587"></polygon><polygon points="1561,542,1561,564"></polygon><polygon points="1561,565,1561,579"></polygon><polygon points="1212,476,1222,487"></polygon><polygon points="1206,512,1213,612"></polygon><polygon points="1213,610,1201,655"></polygon><polygon points="1202,655,1160,719"></polygon><polygon points="796,678,902,678"></polygon><polygon points="791,677,791,704"></polygon><polygon points="796,692,851,738"></polygon><polygon points="853,737,901,691"></polygon><polygon points="902,675,929,675"></polygon><polygon points="929,675,929,696"></polygon><polygon points="892,698,895,698"></polygon><polygon points="904,699,928,719"></polygon><polygon points="804,707,788,714"></polygon><polygon points="755,586,755,630"></polygon><polygon points="760,619,736,693"></polygon><polygon points="736,692,712,753"></polygon><polygon points="944,582,947,628"></polygon><polygon points="937,618,980,720"></polygon><polygon points="980,720,1027,787"></polygon><polygon points="743,789,749,747"></polygon><polygon points="745,767,787,763"></polygon><polygon points="787,763,950,768"></polygon><polygon points="943,753,946,768"></polygon><polygon points="954,768,954,794"></polygon><polygon points="771,764,783,776"></polygon><polygon points="783,776,954,779"></polygon><polygon points="861,797,863,802"></polygon><polygon points="864,797,864,795"></polygon><polygon points="829,656,866,656"></polygon><polygon points="866,656,929,602"></polygon><polygon points="929,603,958,603"></polygon><polygon points="958,603,958,549"></polygon><polygon points="958,549,917,549"></polygon><polygon points="917,549,852,611"></polygon><polygon points="852,611,835,650"></polygon><polygon points="824,650,838,608"></polygon><polygon points="838,608,780,608"></polygon><polygon points="781,608,714,584"></polygon><polygon points="713,590,713,633"></polygon><polygon points="713,633,743,630"></polygon><polygon points="743,630,837,658"></polygon><polygon points="810,649,756,647"></polygon><polygon points="771,646,767,631"></polygon><polygon points="759,651,762,659"></polygon><polygon points="762,659,770,659"></polygon><polygon points="880,642,932,645"></polygon><polygon points="933,645,933,660"></polygon><polygon points="925,642,923,621"></polygon><polygon points="903,628,906,628"></polygon><polygon points="754,580,748,543"></polygon><polygon points="748,543,843,530"></polygon><polygon points="844,530,919,527"></polygon><polygon points="919,527,919,550"></polygon><polygon points="922,532,1085,556"></polygon><polygon points="1084,555,1038,445"></polygon><polygon points="1038,445,1156,575"></polygon><polygon points="1156,575,1152,617"></polygon><polygon points="1152,615,1134,638"></polygon><polygon points="1134,636,987,649"></polygon><polygon points="944,636,1017,587"></polygon><polygon points="1017,588,985,660"></polygon><polygon points="985,660,985,677"></polygon><polygon points="985,676,972,670"></polygon><polygon points="972,670,962,680"></polygon><polygon points="953,647,997,612"></polygon><polygon points="970,635,978,641"></polygon><polygon points="750,550,628,585"></polygon><polygon points="628,585,683,492"></polygon><polygon points="683,492,579,586"></polygon><polygon points="579,586,570,636"></polygon><polygon points="570,636,598,663"></polygon><polygon points="612,671,717,660"></polygon><polygon points="713,749,682,834"></polygon><polygon points="683,834,715,871"></polygon><polygon points="715,871,720,862"></polygon><polygon points="721,862,759,884"></polygon><polygon points="759,884,771,860"></polygon><polygon points="774,858,813,886"></polygon><polygon points="813,886,824,865"></polygon><polygon points="828,864,878,899"></polygon><polygon points="878,899,879,862"></polygon><polygon points="879,862,939,891"></polygon><polygon points="939,891,943,855"></polygon><polygon points="943,855,960,855"></polygon><polygon points="960,855,960,847"></polygon><polygon points="960,847,980,847"></polygon><polygon points="980,847,980,833"></polygon><polygon points="982,829,1013,823"></polygon><polygon points="1012,822,1017,791"></polygon><polygon points="751,661,750,661"></polygon><polygon points="742,643,627,842"></polygon><polygon points="615,828,615,902"></polygon><polygon points="614,835,609,907"></polygon><polygon points="599,824,598,898"></polygon><polygon points="607,827,638,827"></polygon><polygon points="1006,664,1063,815"></polygon><polygon points="1071,813,1072,883"></polygon><polygon points="1068,807,1076,807"></polygon><polygon points="1083,806,1084,880"></polygon><polygon points="1090,819,1090,875"></polygon><polygon points="1091,831,1112,838"></polygon><polygon points="601,830,550,855"></polygon><polygon points="971,432,994,450"></polygon><polygon points="1004,446,922,524"></polygon><polygon points="1038,472,1002,525"></polygon><polygon points="1007,446,1037,467"></polygon><polygon points="991,448,1011,421"></polygon><polygon points="1002,411,1078,467"></polygon><polygon points="1078,467,1080,458"></polygon><polygon points="1080,458,1004,402"></polygon><polygon points="1004,402,998,413"></polygon><polygon points="1029,437,1005,471"></polygon><polygon points="1041,467,1041,464"></polygon><polygon points="1025,415,1070,348"></polygon><polygon points="1049,435,1095,363"></polygon><polygon points="1071,346,1095,363"></polygon><polygon points="1072,341,1096,358"></polygon><polygon points="1069,332,1108,359"></polygon><polygon points="1108,359,1132,346"></polygon><polygon points="1131,346,1131,325"></polygon><polygon points="1131,325,1105,310"></polygon><polygon points="1070,329,1069,316"></polygon><polygon points="1072,308,1076,304"></polygon><polygon points="1038,394,1044,430"></polygon><polygon points="1025,415,1072,415"></polygon><polygon points="1057,367,1066,407"></polygon><polygon points="1040,391,1084,377"></polygon><polygon points="1071,344,1079,375"></polygon><polygon points="742,458,719,534"></polygon><polygon points="681,680,654,751"></polygon><polygon points="649,761,666,801"></polygon><polygon points="339,431,290,442"></polygon><polygon points="313,449,337,448"></polygon><polygon points="371,448,396,448"></polygon><polygon points="396,448,369,464"></polygon><polygon points="351,464,310,464"></polygon><polygon points="312,464,312,456"></polygon><polygon points="449,463,456,464"></polygon><polygon points="449,468,488,496"></polygon><polygon points="448,465,455,493"></polygon><polygon points="455,492,494,505"></polygon><polygon points="182,362,211,412"></polygon><polygon points="211,412,211,443"></polygon><polygon points="188,429,179,447"></polygon><polygon points="179,447,180,468"></polygon><polygon points="180,468,193,468"></polygon><polygon points="193,468,201,456"></polygon><polygon points="201,456,195,420"></polygon><polygon points="191,423,196,451"></polygon><polygon points="196,451,190,461"></polygon><polygon points="191,461,184,461"></polygon><polygon points="184,461,183,449"></polygon><polygon points="183,449,193,433"></polygon></g><g stroke="#234" fill="none"><polygon points=""></polygon></g></svg>